<svg width="270" height="697" viewBox="0 0 270 697" fill="none" xmlns="http://www.w3.org/2000/svg">
<path d="M-615.101 583.734L-246.175 690.659C-205.154 702.548 -161.202 693.189 -128.529 665.654L-127.759 665.001L-127.758 665C-95.2872 637.26 -78.8506 595.355 -83.863 552.876L-83.9857 551.872L-130.238 182.927L-130.432 181.378L-128.944 181.849L104.651 255.811C155.147 270.438 206.934 253.96 239.847 212.834C272.681 171.679 277.424 117.433 252.163 71.3336L-349.29 -1023.39C-354.851 -1033.39 -363.98 -1040.4 -374.355 -1043.41C-381.754 -1045.55 -389.657 -1045.66 -397.446 -1043.46C-416.16 -1038.14 -428.755 -1020.57 -427.859 -1001.09L-391.205 -238.98L-391.135 -237.547L-392.504 -237.978L-623.458 -310.816L-625.348 -311.355C-665.192 -322.505 -714.298 -323.758 -746.421 -298.619C-779.04 -273.092 -788.356 -224.706 -786.668 -182.901L-730.915 430.737L-730.913 430.763L-730.912 430.79C-728.109 504.44 -683.67 563.861 -615.101 583.734Z" fill="url(#paint0_radial_7237_454)" stroke="url(#paint1_linear_7237_454)" strokeWidth="2"/>
<defs>
<radialGradient id="paint0_radial_7237_454" cx="0" cy="0" r="1" gradientUnits="userSpaceOnUse" gradientTransform="translate(-959 -943.225) rotate(45.3858) scale(1942.82 1942.82)">
<stop offset="0.241986" stop-color="#085EC4"/>
<stop offset="0.931344" stop-color="white" stop-opacity="0"/>
</radialGradient>
<linearGradient id="paint1_linear_7237_454" x1="-656.057" y1="-187.336" x2="229" y2="163.275" gradientUnits="userSpaceOnUse">
<stop offset="0.4375" stop-color="#81C4FF"/>
<stop offset="1" stop-color="#81C4FF" stop-opacity="0"/>
</linearGradient>
</defs>
</svg>
