<svg width="328" height="440" viewBox="0 0 328 440" fill="none" xmlns="http://www.w3.org/2000/svg">
<g opacity="0.5" clipPath="url(#clip0_7249_535)">
<path opacity="0.5" d="M1383.49 -69.8789C1366.09 -128.317 1318.81 -167.957 1260.09 -173.287L987.974 -191.013L1186.68 -568.901C1209.95 -613.093 1210.24 -665.942 1187.6 -710.018C1164.98 -754.193 1122.68 -783.225 1074.6 -787.589L648.885 -826.226C569.254 -833.453 498.515 -787.694 465.327 -709.152L156.749 -71.7809C137.87 -27.3899 140.586 21.8502 164.214 63.4274C187.842 105.005 227.896 131.343 274.363 135.56L543.304 153.397L193.824 958.529C184.725 979.611 190.72 1004.35 208.337 1018.2C215.672 1023.94 224.097 1027.2 232.839 1027.99C245.097 1029.1 257.709 1025.27 267.787 1016.62L1338.05 88.8074C1383.4 49.4077 1400.8 -11.4492 1383.49 -69.8789Z" stroke="#259DFF" stroke-width="2"/>
<path opacity="0.5" d="M676.743 -820.898L1109.98 -781.578C1158.41 -777.182 1201.09 -748.855 1224.02 -705.884L1224.02 -705.882C1246.77 -663.342 1246.83 -612.493 1224.09 -569.86L1223.55 -568.854L1022.65 -198.753L1021.53 -196.695L1023.87 -196.54L1300.73 -178.251L1300.73 -178.25C1359.88 -172.881 1407.6 -134.248 1425.32 -77.4327L1425.32 -77.4317C1442.94 -20.6226 1425.63 38.3985 1380.09 76.515L294.316 983.275C284.403 991.467 271.978 995.071 259.889 993.974C251.537 993.216 243.473 990.264 236.381 985.09L235.699 984.583C218.29 971.363 212.296 947.82 221.2 927.8L574.081 139.015L574.96 137.049L572.812 136.905L299.147 118.512C252.125 114.238 204.275 93.9902 180.445 53.7031C156.608 13.4054 161.119 -39.9457 180.052 -83.171L491.861 -707.465L491.879 -707.5L491.895 -707.536C525.158 -783.933 596.389 -828.191 676.743 -820.898Z" stroke="#259DFF" stroke-width="3"/>
<path d="M697.614 -837.569L1130.85 -798.25C1179.44 -793.839 1222.28 -765.412 1245.28 -722.292L1245.28 -722.292C1268.3 -679.269 1268.18 -627.775 1244.81 -584.79L1244.81 -584.789L1043.91 -214.688L1043.17 -213.316L1044.72 -213.213L1321.62 -194.919C1380.97 -189.525 1428.85 -150.755 1446.63 -93.7532C1464.31 -36.7528 1446.93 22.4783 1401.23 60.7246L315.46 967.487C305.443 975.764 292.887 979.407 280.67 978.298C271.957 977.507 263.553 974.354 256.223 968.808L256.224 968.809C238.627 955.447 232.57 931.651 241.569 911.419L594.45 122.637L595.036 121.327L593.604 121.231L319.936 102.837C272.754 98.551 219.101 79.6549 195.179 39.2123C171.263 -1.21843 181.406 -56.1467 200.425 -99.5564L512.24 -723.862L512.252 -723.886L512.263 -723.909C545.606 -800.49 617.032 -844.883 697.614 -837.569Z" stroke="#81C4FF" stroke-opacity="0.5" stroke-width="2"/>
<path d="M647.353 -827.181C567.722 -834.409 496.983 -788.65 463.794 -710.108L155.217 -72.7365C136.338 -28.3454 139.054 20.8946 162.682 62.4718C186.309 104.049 226.364 130.387 272.831 134.605" stroke="url(#paint0_linear_7249_535)" stroke-width="4" stroke-linecap="round"/>
</g>
<defs>
<linearGradient id="paint0_linear_7249_535" x1="433.494" y1="-846.591" x2="269.237" y2="157.009" gradientUnits="userSpaceOnUse">
<stop offset="0.562883" stop-color="#DDECFF"/>
<stop offset="1" stop-color="#259DFF"/>
</linearGradient>
<clipPath id="clip0_7249_535">
<rect width="328" height="472" fill="white"/>
</clipPath>
</defs>
</svg>
